<svg width="60" height="60" viewBox="0 0 60 60" fill="none" xmlns="http://www.w3.org/2000/svg"><path d="M5.95319 38.5332C5.95132 39.075 5.72257 39.5625 5.35694 39.9075H5.35507C4.98007 40.26 4.47382 40.4757 3.91694 40.4757C3.36007 40.4757 2.85194 40.2582 2.47507 39.9057L2.47694 39.9075C2.11132 39.5625 1.88257 39.075 1.88257 38.535C1.88257 37.995 2.11132 37.5057 2.47882 37.1625C2.85382 36.81 3.36194 36.5944 3.91882 36.5944C4.47569 36.5944 4.98194 36.81 5.35882 37.1644L5.35694 37.1625C5.72257 37.5075 5.95132 37.995 5.95319 38.5369V38.5332ZM26.3457 40.1569H22.6951L13.0838 24.9919C12.8626 24.6507 12.6582 24.2569 12.4951 23.8425L12.4782 23.7975H12.3938C12.4707 24.4819 12.5138 25.2732 12.5138 26.0757C12.5138 26.2707 12.5119 26.4657 12.5063 26.6607V26.6325V40.1569H9.27944V19.5263H13.1663L22.4569 34.335C22.8488 34.9463 23.1019 35.37 23.2144 35.6007H23.2707C23.1769 34.8994 23.1244 34.0894 23.1244 33.2663C23.1244 33.1107 23.1263 32.9569 23.1301 32.8013V32.8238V19.5244H26.3457V40.1569ZM42.0619 40.1569H30.7651V19.5263H41.6138V22.4325H34.1044V28.2769H41.0232V31.1682H34.1044V37.2694H42.0619V40.1569ZM58.1176 22.4325H52.3351V40.1588H48.9957V22.4325H43.2263V19.5263H58.1157L58.1176 22.4325Z" fill="#000"></path></svg>