<svg width="60" height="60" viewBox="0 0 60 60" fill="none" xmlns="http://www.w3.org/2000/svg"><g clip-path="url(#clip0_2306_217)"><path d="M57.043 52.3802C57.0541 54.5134 56.1493 56.5489 54.5581 57.9698C52.9669 59.3907 50.8424 60.0603 48.7241 59.8086C44.9121 59.2446 42.1186 55.9273 42.2115 52.0749V7.7842C42.1194 3.92763 44.9197 0.608756 48.7368 0.0504922C50.8531 -0.197213 52.9741 0.474202 54.5623 1.89463C56.1506 3.31505 57.0537 5.34819 57.043 7.47892V52.3802Z" fill="#F9AB00"></path><path d="M10.3735 45.0404C14.4691 45.0404 17.7892 48.3606 17.7892 52.4562C17.7892 56.5517 14.4691 59.8719 10.3735 59.8719C6.27789 59.8719 2.95776 56.5517 2.95776 52.4562C2.95776 48.3606 6.27789 45.0404 10.3735 45.0404ZM29.8858 22.5644C25.7708 22.7899 22.5782 26.2416 22.6736 30.3617V50.2811C22.6736 55.687 25.0523 58.9688 28.5375 59.6683C30.7255 60.1118 32.997 59.5477 34.7233 58.1321C36.4496 56.7165 37.4477 54.5996 37.4415 52.3671V30.0182C37.4451 28.0225 36.6469 26.109 35.2262 24.7074C33.8055 23.3058 31.8813 22.5337 29.8858 22.5644Z" fill="#E37400"></path></g><defs><clipPath id="clip0_2306_217"><rect width="60" height="60" fill="white"></rect></clipPath></defs></svg>