<svg width="60" height="60" viewBox="0 0 60 60" fill="none" xmlns="http://www.w3.org/2000/svg"><g clip-path="url(#clip0_2299_135)"><path d="M57.3056 17.5669L57.0506 16.9913L56.6212 17.4582C55.6069 18.6207 54.3094 19.5113 52.8638 20.0476L52.4606 20.2032L52.6275 20.5932C53.8669 23.5726 54.5119 26.7657 54.5025 29.9888C54.5025 43.5038 43.515 54.5007 29.9906 54.5007C16.4663 54.5007 5.48813 43.5132 5.48813 29.9982C5.48813 16.4832 16.4962 5.48631 30 5.48631C33.6731 5.48631 37.2075 6.27943 40.4981 7.85068L40.8881 8.03631L41.055 7.65381C41.6606 6.22881 42.6075 4.98943 43.8169 4.02193L44.3062 3.62256L43.7494 3.33006C39.5025 1.13256 34.785 -0.00931774 30 5.72642e-05C13.4569 5.72642e-05 0 13.4569 0 30.0001C0 46.5526 13.4569 60.0001 30 60.0001C46.5525 60.0001 60 46.5526 60 30.0001C60 25.6744 59.1019 21.4951 57.3056 17.5669ZM30 16.3276C22.4494 16.3369 16.3369 22.4494 16.3275 30.0001C16.3369 37.5507 22.4494 43.6632 30 43.6726C37.5506 43.6632 43.6631 37.5507 43.6725 30.0001C43.6631 22.4494 37.5506 16.3369 30 16.3276ZM55.86 11.3082C55.86 14.7563 53.0681 17.5407 49.6294 17.5407C46.1812 17.5407 43.3875 14.7563 43.3875 11.3082C43.3875 2.99818 55.86 2.99818 55.86 11.3082Z" fill="#000"></path></g><defs><clipPath id="clip0_2299_135"><rect width="60" height="60" fill="#000"></rect></clipPath></defs></svg>