<svg width="60" height="60" viewBox="0 0 60 60" fill="none" xmlns="http://www.w3.org/2000/svg"><g clip-path="url(#clip0_2300_139)"><path d="M59.5901 29.2645L57.0712 27.7052C57.05 27.4599 57.0259 27.2151 56.9995 26.9715L59.1642 24.9524C59.3843 24.7472 59.4829 24.4434 59.4233 24.1493C59.3654 23.854 59.1584 23.611 58.877 23.5061L56.1098 22.4713C56.0405 22.2317 55.9677 21.9938 55.8931 21.7571L57.6192 19.3597C57.7952 19.116 57.8313 18.799 57.7167 18.521C57.602 18.2441 57.3515 18.0457 57.0551 17.997L54.1372 17.5224C54.0237 17.3011 53.9056 17.0832 53.7864 16.8671L55.0126 14.1756C55.1382 13.9016 55.1124 13.5829 54.945 13.3341C54.7781 13.0842 54.4955 12.938 54.194 12.9494L51.2325 13.0526C51.0795 12.8612 50.9235 12.6714 50.7647 12.4851L51.4452 9.60044C51.514 9.3075 51.4274 9.0008 51.2142 8.78812C51.0026 8.57601 50.6954 8.48831 50.4024 8.5571L47.5183 9.23699C47.3315 9.07877 47.1417 8.92227 46.9497 8.7692L47.0534 5.80773C47.0649 5.50791 46.9187 5.223 46.6688 5.05675C46.4183 4.88936 46.1012 4.86414 45.8278 4.98853L43.1369 6.21532C42.9196 6.09608 42.7018 5.97799 42.4817 5.86391L42.0058 2.94543C41.9577 2.64962 41.7593 2.39853 41.4819 2.28388C41.205 2.16865 40.8874 2.20592 40.6438 2.38133L38.2447 4.10743C38.0085 4.03233 37.7712 3.9601 37.5315 3.89131L36.4968 1.1236C36.3919 0.84155 36.1488 0.634602 35.8536 0.576129C35.5589 0.51823 35.2557 0.616258 35.051 0.835244L33.032 3.00161C32.7884 2.97466 32.543 2.95001 32.2982 2.92995L30.7389 0.410456C30.5813 0.155354 30.3021 0 30.0017 0C29.7013 0 29.4222 0.155354 29.2651 0.410456L27.7058 2.92995C27.4604 2.95001 27.2151 2.97466 26.9715 3.00161L24.9518 0.835244C24.7472 0.616258 24.4434 0.51823 24.1493 0.576129C23.854 0.635175 23.611 0.84155 23.5061 1.1236L22.4713 3.89131C22.2317 3.9601 21.9944 4.03291 21.7576 4.10743L19.3591 2.38133C19.1155 2.20534 18.7979 2.16808 18.5204 2.28388C18.2435 2.39853 18.0446 2.64962 17.9964 2.94543L17.5206 5.86391C17.3005 5.97799 17.0827 6.09551 16.8654 6.21532L14.1745 4.98853C13.9011 4.86356 13.5823 4.88936 13.3335 5.05675C13.0836 5.223 12.9374 5.50791 12.9489 5.80773L13.0521 8.7692C12.8606 8.92227 12.6708 9.07877 12.4834 9.23699L9.59929 8.5571C9.30635 8.48888 8.99908 8.57601 8.78698 8.78812C8.57372 9.0008 8.48716 9.3075 8.55595 9.60044L9.23527 12.4851C9.07762 12.672 8.92169 12.8612 8.76863 13.0526L5.80715 12.9494C5.50848 12.9408 5.223 13.0842 5.05618 13.3341C4.88879 13.5829 4.86356 13.9016 4.98796 14.1756L6.21474 16.8671C6.09551 17.0832 5.97741 17.3011 5.86333 17.5224L2.94543 17.997C2.64905 18.0452 2.39911 18.2435 2.28388 18.521C2.16923 18.799 2.20649 19.116 2.38133 19.3597L4.10743 21.7571C4.03233 21.9938 3.95953 22.2317 3.89074 22.4713L1.12302 23.5061C0.842123 23.611 0.635175 23.854 0.576703 24.1493C0.51823 24.4439 0.616258 24.7472 0.835817 24.9524L3.00103 26.9715C2.97409 27.2151 2.95001 27.4604 2.92937 27.7052L0.410456 29.2645C0.155354 29.4222 0 29.7008 0 30.0017C0 30.3027 0.155354 30.5813 0.410456 30.7384L2.92937 32.2976C2.95001 32.543 2.97409 32.7878 3.00103 33.0314L0.835817 35.051C0.616258 35.2557 0.51823 35.5595 0.576703 35.8536C0.635175 36.1488 0.842123 36.3913 1.12302 36.4968L3.89074 37.5315C3.95953 37.7712 4.03233 38.0091 4.10743 38.2458L2.38133 40.6438C2.20592 40.888 2.16865 41.205 2.28388 41.4819C2.39911 41.7599 2.64962 41.9583 2.946 42.0058L5.86333 42.4805C5.97741 42.7018 6.09436 42.9196 6.21474 43.1369L4.98796 45.8272C4.86299 46.1007 4.88879 46.4188 5.05618 46.6688C5.22357 46.9193 5.50848 47.0655 5.80715 47.0534L8.76748 46.9497C8.92169 47.1423 9.07705 47.3309 9.23527 47.5183L8.55595 50.4036C8.48716 50.6959 8.57372 51.0015 8.78698 51.2142C8.99851 51.428 9.30635 51.5134 9.59929 51.4446L12.4834 50.7653C12.6708 50.9247 12.8606 51.0795 13.0521 51.2319L12.9489 54.194C12.9374 54.4938 13.0836 54.7781 13.3335 54.9455C13.5823 55.1124 13.9011 55.1376 14.1745 55.0126L16.8654 53.7864C17.0821 53.9068 17.2999 54.0237 17.5206 54.1378L17.9964 57.0546C18.0446 57.3515 18.2429 57.6026 18.5204 57.7167C18.7973 57.8319 19.1155 57.7947 19.3591 57.6198L21.7565 55.8926C21.9932 55.9677 22.2311 56.041 22.4708 56.1098L23.5055 58.8764C23.6104 59.1573 23.8535 59.3654 24.1487 59.4227C24.4434 59.4823 24.7466 59.3837 24.9513 59.1636L26.9709 56.9984C27.2145 57.0265 27.4599 57.05 27.7052 57.0718L29.2645 59.5907C29.4216 59.8446 29.7008 60.0011 30.0011 60.0011C30.3015 60.0011 30.5807 59.8452 30.7384 59.5907L32.2976 57.0718C32.543 57.05 32.7878 57.0265 33.0314 56.9984L35.0504 59.1636C35.2551 59.3837 35.5589 59.4823 35.853 59.4227C36.1482 59.3648 36.3913 59.1573 36.4962 58.8764L37.531 56.1098C37.7706 56.041 38.0085 55.9677 38.2452 55.8926L40.6432 57.6198C40.8868 57.7947 41.2044 57.8319 41.4813 57.7167C41.7588 57.6026 41.9571 57.351 42.0053 57.0546L42.4811 54.1378C42.7012 54.0237 42.9191 53.9051 43.1363 53.7864L45.8272 55.0126C46.1007 55.1376 46.4188 55.1124 46.6682 54.9455C46.9181 54.7781 47.0637 54.4944 47.0529 54.194L46.9497 51.2319C47.1411 51.0789 47.3309 50.9247 47.5178 50.7653L50.4019 51.4446C50.6948 51.5134 51.0021 51.428 51.2136 51.2142C51.4269 51.0015 51.5134 50.6959 51.4446 50.4036L50.7653 47.5183C50.9235 47.3309 51.0795 47.1423 51.2319 46.9497L54.1934 47.0534C54.4921 47.0655 54.7776 46.9193 54.9444 46.6688C55.1118 46.4188 55.1376 46.1007 55.012 45.8272L53.7858 43.1369C53.9056 42.9196 54.0232 42.7018 54.1367 42.4805L57.0546 42.0058C57.3515 41.9583 57.6015 41.7599 57.7161 41.4819C57.8308 41.205 57.7947 40.888 57.6187 40.6438L55.8926 38.2458C55.9671 38.0091 56.0399 37.7712 56.1093 37.5315L58.8764 36.4968C59.1579 36.3913 59.3654 36.1488 59.4227 35.8536C59.4823 35.5589 59.3837 35.2557 59.1636 35.051L56.999 33.0314C57.0253 32.7878 57.0494 32.5424 57.0706 32.2976L59.5895 30.7384C59.8446 30.5813 60 30.3021 60 30.0017C60 29.7013 59.8452 29.4222 59.5901 29.2645ZM42.731 50.1605C41.7691 49.953 41.1574 49.0048 41.3638 48.04C41.5696 47.0764 42.5172 46.463 43.4786 46.6705C44.4405 46.8763 45.0533 47.8262 44.8469 48.7893C44.6406 49.7523 43.6924 50.3663 42.731 50.1605ZM41.8751 44.3717C40.9975 44.1837 40.1341 44.742 39.9461 45.6214L39.0518 49.7948C36.2921 51.0474 33.2275 51.7433 30 51.7433C26.6986 51.7433 23.5674 51.013 20.7584 49.7071L19.8647 45.5337C19.6767 44.6555 18.8133 44.096 17.9363 44.2846L14.2519 45.0757C13.568 44.3717 12.9317 43.6219 12.3469 42.8302H30.274C30.477 42.8302 30.6122 42.7935 30.6122 42.6089V36.2675C30.6122 36.0829 30.477 36.0462 30.274 36.0462H25.031V32.0265H30.7017C31.2193 32.0265 33.4694 32.1744 34.1888 35.0504C34.4141 35.935 34.9089 38.8122 35.2471 39.7334C35.5842 40.7665 36.9565 42.8302 38.4189 42.8302H47.3521C47.4536 42.8302 47.5619 42.8187 47.676 42.7981C47.0563 43.6402 46.3764 44.4371 45.6443 45.1817L41.8751 44.3717ZM17.0804 50.0734C16.1184 50.2809 15.1714 49.6675 14.9645 48.7039C14.7587 47.7385 15.3703 46.7909 16.3323 46.5834C17.2942 46.3775 18.2418 46.9909 18.4482 47.9546C18.654 48.9177 18.0417 49.867 17.0804 50.0734ZM10.2798 22.4966C10.6787 23.3972 10.2729 24.4525 9.37342 24.851C8.47397 25.2505 7.42146 24.8441 7.02247 23.9429C6.62348 23.0417 7.02935 21.9881 7.9288 21.5885C8.82882 21.1895 9.88076 21.5954 10.2798 22.4966ZM8.18964 27.4513L12.0276 25.7458C12.8474 25.3818 13.2177 24.421 12.8537 23.5995L12.0632 21.8121H15.172V35.8249H8.89991C8.35588 33.9125 8.06409 31.8941 8.06409 29.808C8.06409 29.0117 8.10709 28.2246 8.18964 27.4513ZM25.0321 26.0903V21.96H32.4352C32.8176 21.96 35.1353 22.402 35.1353 24.1349C35.1353 25.5738 33.3576 26.0898 31.8958 26.0898H25.0321V26.0903ZM51.9365 29.808C51.9365 30.356 51.9164 30.8983 51.8763 31.4366H49.6257C49.4004 31.4366 49.3098 31.5845 49.3098 31.8052V32.8388C49.3098 35.2717 47.938 35.8008 46.7358 35.9356C45.591 36.0645 44.3218 35.4563 44.1653 34.7558C43.49 30.9573 42.3647 30.1462 40.5876 28.7446C42.7929 27.3441 45.0877 25.278 45.0877 22.5126C45.0877 19.5265 43.0406 17.6456 41.6453 16.7232C39.6876 15.4328 37.5201 15.1743 36.9353 15.1743H13.6591C16.8155 11.6516 21.0932 9.15616 25.9316 8.24811L28.6752 11.1265C29.2955 11.776 30.3227 11.8 30.9717 11.1792L34.0415 8.24295C40.4741 9.4405 45.9201 13.4447 49.0587 18.9383L46.9571 23.6849C46.5942 24.5064 46.9646 25.4672 47.7838 25.8312L51.8299 27.6284C51.8998 28.3467 51.9365 29.0725 51.9365 29.808ZM28.6763 5.7997C29.3872 5.11867 30.5148 5.14561 31.1953 5.8576C31.8746 6.57131 31.8488 7.70007 31.1362 8.38053C30.4254 9.06157 29.2978 9.0352 28.6173 8.32206C27.9385 7.60949 27.9643 6.48074 28.6763 5.7997ZM49.5316 22.5831C49.9301 21.6825 50.9826 21.2761 51.882 21.6756C52.7815 22.0746 53.1873 23.1294 52.7884 24.03C52.3899 24.9312 51.3374 25.3377 50.4374 24.9381C49.5391 24.5391 49.1332 23.4849 49.5316 22.5831Z" fill="#000"></path></g><defs><clipPath id="clip0_2300_139"><rect width="60" height="60" fill="#000"></rect></clipPath></defs></svg>