<svg width="60" height="60" viewBox="0 0 60 60" fill="none" xmlns="http://www.w3.org/2000/svg"><path fill-rule="evenodd" clip-rule="evenodd" d="M40.9294 5.37396C44.1234 5.95883 47.3274 7.39671 48.8807 10.3553C50.4812 13.4036 50.3134 16.3698 48.9827 18.867C47.7249 21.2277 45.5342 22.992 43.3264 24.1773C41.1024 25.3713 38.5957 26.1223 36.3979 26.2693C35.3039 26.3425 34.1537 26.2753 33.1087 25.938C32.0569 25.5985 30.8999 24.9062 30.2584 23.6067C29.6469 22.3687 30.1549 20.8695 31.3929 20.2582C32.5542 19.6848 33.9449 20.0961 34.6177 21.1707C34.6259 21.1736 34.6347 21.1765 34.6442 21.1796C34.8909 21.2592 35.3587 21.3277 36.0642 21.2805C37.4659 21.1867 39.2854 20.6718 40.9612 19.772C42.6532 18.8637 43.9354 17.7067 44.5702 16.5157C45.1319 15.4614 45.2759 14.2457 44.4537 12.6794C43.9527 11.7249 42.6097 10.7648 40.0289 10.2922C37.5337 9.83526 34.3677 9.94173 31.1174 10.6178C27.8757 11.2922 24.7093 12.5004 22.1993 14.1096C19.6648 15.7344 18.0129 17.6247 17.3782 19.5838C16.6916 21.703 16.935 23.1945 17.5532 24.4196C18.2314 25.7633 19.4735 27.0078 21.1862 28.34C22.0151 28.985 22.8952 29.607 23.8228 30.2628L23.8731 30.2985C24.8002 30.9538 25.7787 31.6465 26.6934 32.3688C27.4637 32.977 28.2507 33.652 28.9712 34.4115C32.2044 33.788 35.0057 33.8558 37.3012 34.9058C40.2569 36.2575 41.7387 38.9215 42.4357 41.9368C42.7467 43.282 41.9082 44.6245 40.5629 44.9355C39.2177 45.2465 37.8752 44.408 37.5642 43.0628C37.0639 40.898 36.2464 39.9215 35.2217 39.4528C34.4704 39.1093 33.3484 38.9135 31.6784 39.0653C33.2184 44.4785 30.5297 49.3808 27.2379 52.1578C25.4647 53.6538 23.2937 54.744 21.1236 54.9605C18.8538 55.1873 16.4288 54.426 15.0059 52.0565C13.7493 49.9643 13.7393 47.7395 14.3948 45.7585C15.0254 43.8528 16.2709 42.1373 17.6354 40.7173C19.3503 38.9323 21.5074 37.3563 23.5531 36.26C22.7704 35.6443 21.9139 35.0365 20.9869 34.3813L20.8983 34.3185C19.999 33.683 19.0369 33.003 18.116 32.2865C16.2383 30.8258 14.2778 29.0268 13.0895 26.6723C11.8413 24.1991 11.5543 21.3372 12.6216 18.0427C13.7409 14.5881 16.4108 11.8813 19.5008 9.90031C22.6153 7.90358 26.3759 6.49713 30.0992 5.72263C33.8137 4.94993 37.6499 4.77341 40.9294 5.37396ZM26.8049 40.2248C25.1219 40.9885 22.933 42.4203 21.2408 44.1813C20.1668 45.2993 19.4532 46.3875 19.1417 47.3293C18.855 48.1958 18.9198 48.862 19.2923 49.4823C19.4984 49.8255 19.8144 50.0665 20.627 49.9853C21.5392 49.8943 22.7921 49.367 24.0138 48.3363C26.3522 46.3635 27.7679 43.312 26.8049 40.2248ZM34.5302 21.1346L34.5344 21.137L34.5302 21.1346Z" fill="#000"></path></svg>