<svg width="60" height="60" viewBox="0 0 60 60" fill="none" xmlns="http://www.w3.org/2000/svg"><path fill-rule="evenodd" clip-rule="evenodd" d="M10.7322 6.98223C11.7085 6.00592 13.2915 6.00592 14.2678 6.98223C15.2441 7.95854 15.2441 9.54146 14.2678 10.5178L9.26777 15.5178C8.29146 16.4941 6.70854 16.4941 5.73223 15.5178C4.75592 14.5415 4.75592 12.9585 5.73223 11.9822L10.7322 6.98223ZM45.7322 6.98223C46.7085 6.00592 48.2914 6.00592 49.2678 6.98223L54.2678 11.9822C55.2441 12.9585 55.2441 14.5415 54.2678 15.5178C53.2915 16.4941 51.7085 16.4941 50.7322 15.5178L45.7322 10.5178C44.7559 9.54146 44.7559 7.95854 45.7322 6.98223ZM30 13.75C20.335 13.75 12.5 21.585 12.5 31.25C12.5 40.915 20.335 48.75 30 48.75C39.665 48.75 47.5 40.915 47.5 31.25C47.5 21.585 39.665 13.75 30 13.75ZM7.5 31.25C7.5 18.8236 17.5736 8.75 30 8.75C42.4265 8.75 52.5 18.8236 52.5 31.25C52.5 43.6765 42.4265 53.75 30 53.75C17.5736 53.75 7.5 43.6765 7.5 31.25ZM39.2678 24.4822C40.2441 25.4585 40.2441 27.0415 39.2678 28.0178L29.2678 38.0178C28.2915 38.9941 26.7085 38.9941 25.7322 38.0178L20.7322 33.0178C19.7559 32.0415 19.7559 30.4585 20.7322 29.4822C21.7085 28.5059 23.2915 28.5059 24.2678 29.4822L27.5 32.7145L35.7322 24.4822C36.7085 23.5059 38.2915 23.5059 39.2678 24.4822Z" fill="#000"></path></svg>