<?xml version="1.0" encoding="UTF-8"?>
<!DOCTYPE svg PUBLIC "-//W3C//DTD SVG 1.1//EN" "http://www.w3.org/Graphics/SVG/1.1/DTD/svg11.dtd">
<!-- Creator: CorelDRAW X7 -->
<svg xmlns="http://www.w3.org/2000/svg" xml:space="preserve" width="8.26772in" height="11.6929in" version="1.1" style="shape-rendering:geometricPrecision; text-rendering:geometricPrecision; image-rendering:optimizeQuality; fillRule:evenodd; clipRule:evenodd"
viewBox="0 0 8268 11693"
 xmlns:xlink="http://www.w3.org/1999/xlink">
 <defs>
  <style type="text/css">
   <![CDATA[
    .str0 {stroke:#FEFEFE;stroke-width:3}
    .str1 {stroke:#96989A;stroke-width:3}
    .fil3 {fill:#FEFEFE}
    .fil1 {fill:#A9ABAE}
    .fil4 {fill:#96989A}
    .fil2 {fill:#9A9A9A}
    .fil0 {fill:#FDFDFF}
   ]]>
  </style>
 </defs>
 <g id="Layer_x0020_1">
  <metadata id="CorelCorpID_0Corel-Layer"/>
  <path class="fil0" d="M5094 3854c-45,8 -75,30 -94,55 -28,33 -32,63 -32,115 0,49 -3,261 2,292 5,42 30,73 54,92 35,28 61,31 112,31 50,0 261,3 292,-2 42,-6 72,-30 91,-54 28,-34 30,-63 30,-114 0,-50 3,-262 -1,-292 -6,-43 -31,-74 -53,-92 -32,-26 -63,-32 -113,-32 -46,0 -260,-3 -288,1z"/>
  <path class="fil1" d="M2743 3308c0,2 -1,3 -1,5l-6 10c10,1 9,1 15,6l0 202 7 4c21,-7 54,-53 176,-82 75,-17 154,-26 233,-28 -18,21 -25,0 -52,18 2,0 3,0 5,1 0,0 0,2 0,2l1 6c-6,3 -108,26 -115,26 10,18 -11,13 -36,48 -5,8 -8,14 -20,14 29,7 89,1 126,2 139,6 233,20 391,21 88,3 294,-57 340,-98 -53,-5 -325,-41 -350,-57 105,-12 196,-21 293,-47 83,-24 183,-75 206,-135 -201,13 -436,12 -640,3 -97,-4 -230,-10 -324,2 -46,7 -92,16 -134,30 -66,21 -71,30 -115,47z"/>
  <path class="fil0" d="M5598 4439l143 0 2 -368c11,12 54,73 66,92l129 185c11,16 55,86 68,91 38,0 77,0 113,0 69,0 59,13 59,-53l0 -510c0,-29 0,-23 -33,-23 -19,0 -39,0 -58,0 -9,0 -48,-3 -54,3 -9,19 0,309 -3,362l-18 -21c-6,-9 -10,-15 -16,-23 -39,-59 -193,-283 -224,-321l-174 0c-5,19 -5,565 0,586z"/>
  <path class="fil0" d="M4576 4216l0 82 -421 2c-1,32 -6,115 2,137 22,8 290,2 337,2 52,0 108,7 150,-16 34,-18 65,-52 75,-97 9,-34 7,-123 -4,-154 -41,-115 -154,-96 -243,-96 -37,0 -141,4 -170,-3l0 -79c82,-11 375,8 420,-3 1,-27 6,-119 -1,-135 -21,-9 -286,-3 -333,-3 -53,0 -108,-6 -152,15 -34,16 -68,51 -76,95 -9,33 -8,121 3,154 13,41 45,73 85,87 62,25 262,-1 328,12z"/>
  <path class="fil2" d="M2373 3925l0 99c1,33 3,-11 13,22 2,6 2,13 2,21l0 -19c51,0 63,16 90,25 25,7 34,0 49,10l28 16c0,1 1,1 1,1 37,21 34,-10 60,28 13,0 21,-3 31,-1 29,6 -3,3 32,1 53,-20 60,-23 126,-23 127,0 351,3 458,-5 8,-32 5,-156 -64,-188 -136,-63 -574,39 -709,-74 -94,-76 -29,-199 -16,-263 -45,51 -108,266 -101,350z"/>
  <path class="fil0" d="M3252 4571c-2,-104 -44,-170 -123,-198 -142,-51 -372,35 -585,-44 -41,-16 -71,-38 -99,-62 -15,-13 -25,-26 -37,-42 -10,-15 -23,-40 -32,-51 17,146 127,310 271,378 86,41 184,38 290,35 104,-3 212,-8 315,-16z"/>
  <path class="fil3 str0" d="M2758 3535c-3,5 -12,15 -16,19 -10,12 -10,6 -20,21 -14,22 -21,25 -34,47 -7,14 -21,35 -28,51 -9,20 -20,39 -23,57 24,-6 45,-25 106,-37 47,-8 80,-13 132,-14 199,-6 343,49 551,6 44,-9 193,-55 212,-87l-121 -12c-35,-4 -79,-16 -113,-16 10,0 20,0 31,-1l32 -6c-158,-1 -252,-15 -391,-21 -37,-1 -97,5 -126,-2 12,0 15,-6 20,-14 25,-35 46,-30 36,-48 7,0 109,-23 115,-26l-1 -6c0,0 0,-2 0,-2 -2,-1 -3,-1 -5,-1 27,-18 34,3 52,-18 -79,2 -158,11 -233,28 -122,29 -155,75 -176,82z"/>
  <path class="fil3 str0" d="M2637 3730c3,-18 14,-37 23,-57 7,-16 21,-37 28,-51 13,-22 20,-25 34,-47 10,-15 10,-9 20,-21 4,-4 13,-14 16,-19l-7 -4 0 -202c-6,-5 -5,-5 -15,-6l6 -10c0,-2 1,-3 1,-5 -68,28 -149,107 -191,158 -77,91 -137,265 -49,349 44,41 135,64 217,57 -126,-16 -98,-70 -83,-142z"/>
  <path class="fil0" d="M3558 4439l154 0c23,-53 224,-570 222,-586l-152 0 -114 291c-15,38 -112,276 -110,295z"/>
  <path class="fil0" d="M3963 4437l142 2c6,-19 6,-567 0,-586l-143 0c-6,35 -3,573 1,584z"/>
  <path class="fil0" d="M4776 4439l144 0 1 -586 -145 0c-4,22 -4,561 0,586z"/>
  <path class="fil0" d="M3518 4335c0,-2 2,-3 2,-3l70 -174c12,-30 1,-37 -10,-65 -15,-41 -30,-77 -46,-118 -14,-39 -29,-87 -47,-122l-153 0c0,13 174,467 184,482z"/>
  <path class="fil4 str1" d="M2679 4128c-35,2 -3,5 -32,-1 -10,-2 -18,1 -31,1 -26,-38 -23,-7 -60,-28 0,0 -1,0 -1,-1l-28 -16c-15,-10 -24,-3 -49,-10 -27,-9 -39,-25 -90,-25l0 19c0,-8 0,-15 -2,-21 -10,-33 -12,11 -13,-22l0 -99c-6,9 -3,1 -6,14l0 59c0,48 5,92 13,139 12,50 145,101 198,119 21,7 44,8 63,16 -15,-43 -29,-66 9,-116 9,-10 3,-4 13,-12l15 -13c0,-1 1,-3 1,-3z"/>
 </g>
</svg>
