<svg width="45" height="50" viewBox="0 0 45 50" fill="none" xmlns="http://www.w3.org/2000/svg">
<path d="M13.3144 50C9.87604 50 6.91416 49.0272 4.4288 47.0816C3.23284 46.1286 2.27046 44.8978 1.54167 43.3889C0.831568 41.8602 0.476517 40.411 0.476517 39.0411C0.476517 37.9095 0.597982 36.9168 0.840912 36.0631C1.10253 35.1896 1.3548 34.3756 1.59773 33.6212C1.84066 32.8469 1.96213 32.0528 1.96213 31.2388C1.96213 30.4249 1.64445 29.5612 1.00909 28.648C1.25202 28.4495 1.59773 28.3502 2.04622 28.3502C2.83107 28.3502 3.55052 28.6381 4.20456 29.2138C4.87729 29.7896 5.41921 30.5043 5.83032 31.358C6.26012 32.2116 6.47502 33.0653 6.47502 33.919C7.96998 33.0653 9.29675 32.7179 10.4553 32.8767C11.6326 33.0355 12.3801 33.373 12.6978 33.8892C13.0154 34.3855 13.1743 34.8223 13.1743 35.1995V35.4378C12.0904 35.5767 11.1374 36.0631 10.3152 36.897C9.51165 37.7109 9.10988 38.7532 9.10988 40.0238C9.10988 41.2944 9.49296 42.2374 10.2591 42.8529C11.0253 43.4683 11.997 43.7761 13.1743 43.7761C14.3329 43.7761 15.4354 43.2897 16.4819 42.3169C17.5283 41.3242 18.0516 39.9345 18.0516 38.1477C18.0516 35.547 17.4443 33.4127 16.2296 31.7451C15.015 30.0576 13.3985 29.2138 11.3803 29.2138C10.8384 29.2138 10.2311 29.3032 9.55837 29.4818C8.88564 29.6605 8.50255 29.7499 8.40912 29.7499L8.18488 29.6903C7.99801 29.6109 7.82982 29.323 7.68033 28.8267C7.26922 27.2781 6.50305 26.0373 5.38184 25.1042C1.79395 22.027 0 17.9373 0 12.835C0 8.72543 1.26137 5.55886 3.7841 3.33532C6.32553 1.11177 9.83867 0 14.3235 0C16.2857 0 18.0049 0.397062 19.4811 1.19119C20.9761 1.98531 22.1253 2.75958 22.9289 3.514C24.7415 5.24121 25.6478 7.48461 25.6478 10.2442C25.6478 11.1574 25.4236 12.3784 24.9751 13.9071C24.5266 15.4159 24.3024 16.3391 24.3024 16.6766C24.3024 17.8479 24.7695 18.9895 25.7039 20.1012C25.3675 19.9821 24.891 19.9226 24.2743 19.9226C23.6577 19.9226 23.069 19.7538 22.5084 19.4163C21.9665 19.0788 21.5367 18.6619 21.219 18.1656C20.621 17.2722 20.1632 16.21 19.8455 14.9792C19.7147 15.1975 19.2382 15.4258 18.416 15.6641C17.5937 15.8825 16.9023 15.9917 16.3417 15.9917C14.716 15.9917 13.7536 15.4854 13.4546 14.4729C13.3238 14.1751 13.2584 13.8773 13.2584 13.5795C14.417 13.52 15.4261 13.2023 16.2857 12.6266C17.1639 12.031 17.6031 11.0979 17.6031 9.82728C17.6031 8.53683 17.2387 7.54417 16.5099 6.84932C15.7998 6.1346 14.9963 5.77725 14.0993 5.77725C11.1654 5.77725 9.69852 7.64344 9.69852 11.3758C9.69852 14.5325 10.4553 16.8851 11.969 18.4336C12.7165 19.188 13.4826 19.5851 14.2675 19.6248C15.071 19.6645 15.968 19.5354 16.9584 19.2376C17.818 18.9796 18.3412 18.8505 18.5281 18.8505C18.6589 18.8505 18.8084 19.1086 18.9766 19.6248C19.5746 21.3917 20.294 22.5829 21.1349 23.1983C23.1718 24.6278 24.7882 26.4642 25.9842 28.7076C27.1801 30.951 27.7781 33.3433 27.7781 35.8845C27.7781 38.4257 27.3577 40.5797 26.5168 42.3466C25.6758 44.1136 24.564 45.543 23.1811 46.6349C20.3407 48.8783 17.0518 50 13.3144 50Z" fill="white"/>
<path d="M30.5363 50C27.0979 50 24.136 49.0272 21.6507 47.0816C20.4547 46.1286 19.4923 44.8978 18.7635 43.3889C18.0534 41.8602 17.6984 40.411 17.6984 39.0411C17.6984 37.9095 17.8199 36.9168 18.0628 36.0631C18.3244 35.1896 18.5767 34.3756 18.8196 33.6212C19.0625 32.8469 19.184 32.0528 19.184 31.2388C19.184 30.4249 18.8663 29.5612 18.231 28.648C18.4739 28.4495 18.8196 28.3502 19.2681 28.3502C20.0529 28.3502 20.7724 28.6381 21.4264 29.2138C22.0992 29.7896 22.6411 30.5043 23.0522 31.358C23.482 32.2116 23.6969 33.0653 23.6969 33.919C25.1919 33.0653 26.5186 32.7179 27.6772 32.8767C28.8545 33.0355 29.602 33.373 29.9196 33.8892C30.2373 34.3855 30.3962 34.8223 30.3962 35.1995V35.4378C29.3123 35.5767 28.3593 36.0631 27.5371 36.897C26.7335 37.7109 26.3318 38.7532 26.3318 40.0238C26.3318 41.2944 26.7148 42.2374 27.481 42.8529C28.2472 43.4683 29.2189 43.7761 30.3962 43.7761C31.5548 43.7761 32.6573 43.2897 33.7038 42.3169C34.7502 41.3242 35.2735 39.9345 35.2735 38.1477C35.2735 35.547 34.6661 33.4127 33.4515 31.7451C32.2368 30.0576 30.6204 29.2138 28.6022 29.2138C28.0603 29.2138 27.453 29.3032 26.7802 29.4818C26.1075 29.6605 25.7244 29.7499 25.631 29.7499L25.4068 29.6903C25.2199 29.6109 25.0517 29.323 24.9022 28.8267C24.4911 27.2781 23.7249 26.0373 22.6037 25.1042C19.0158 22.027 17.2219 17.9373 17.2219 12.835C17.2219 8.72543 18.4832 5.55886 21.006 3.33532C23.5474 1.11177 27.0605 0 31.5454 0C33.5075 0 35.2267 0.397062 36.703 1.19119C38.198 1.98531 39.3472 2.75958 40.1507 3.514C41.9634 5.24121 42.8697 7.48461 42.8697 10.2442C42.8697 11.1574 42.6454 12.3784 42.197 13.9071C41.7485 15.4159 41.5242 16.3391 41.5242 16.6766C41.5242 17.8479 41.9914 18.9895 42.9258 20.1012C42.5894 19.9821 42.1129 19.9226 41.4962 19.9226C40.8795 19.9226 40.2909 19.7538 39.7303 19.4163C39.1884 19.0788 38.7586 18.6619 38.4409 18.1656C37.8429 17.2722 37.3851 16.21 37.0674 14.9792C36.9366 15.1975 36.4601 15.4258 35.6378 15.6641C34.8156 15.8825 34.1242 15.9917 33.5636 15.9917C31.9378 15.9917 30.9755 15.4854 30.6765 14.4729C30.5457 14.1751 30.4803 13.8773 30.4803 13.5795C31.6388 13.52 32.6479 13.2023 33.5075 12.6266C34.3858 12.031 34.825 11.0979 34.825 9.82728C34.825 8.53683 34.4606 7.54417 33.7318 6.84932C33.0217 6.1346 32.2181 5.77725 31.3212 5.77725C28.3873 5.77725 26.9204 7.64344 26.9204 11.3758C26.9204 14.5325 27.6772 16.8851 29.1909 18.4336C29.9383 19.188 30.7045 19.5851 31.4893 19.6248C32.2929 19.6645 33.1899 19.5354 34.1803 19.2376C35.0399 18.9796 35.5631 18.8505 35.75 18.8505C35.8808 18.8505 36.0303 19.1086 36.1985 19.6248C36.7964 21.3917 37.5159 22.5829 38.3568 23.1983C40.3937 24.6278 42.0101 26.4642 43.2061 28.7076C44.402 30.951 45 33.3433 45 35.8845C45 38.4257 44.5795 40.5797 43.7386 42.3466C42.8977 44.1136 41.7858 45.543 40.403 46.6349C37.5626 48.8783 34.2737 50 30.5363 50Z" fill="white"/>
</svg>
