<svg width="60" height="60" viewBox="0 0 60 60" fill="none" xmlns="http://www.w3.org/2000/svg">
<path d="M29.6644 43.4718C29.6644 43.4718 29.6644 24.0449 30.3094 24.0468C30.8082 24.0468 31.4569 49.1062 31.4569 49.1062C30.5644 49.0012 29.6644 44.983 29.6644 43.4718ZM42.1669 24.2718C40.4438 16.7418 36.6694 10.2674 31.4644 5.27053L31.4513 5.25928C30.8175 4.29178 30.2382 3.18178 29.7732 2.01178L29.7282 1.88428C29.73 1.92178 29.73 1.96678 29.73 2.01178C29.73 3.07115 29.2557 4.01803 28.5075 4.65365L28.5019 4.6574C21.8007 10.3462 17.5369 18.7293 17.3963 28.1099V28.1343C17.3944 28.2505 17.3944 28.3874 17.3944 28.5243C17.3944 37.8187 21.8663 46.0687 28.7757 51.2399L28.8488 51.2924L29.0119 51.4105C29.3132 53.6405 29.5707 55.8755 29.7844 58.1155H30.9113C31.2225 55.3199 31.6425 52.873 32.1919 50.473L32.1057 50.9212C32.8482 50.4055 33.4969 49.8712 34.1025 49.2918L34.0969 49.2974C39.3488 44.428 42.6263 37.4905 42.6263 29.7899C42.6263 29.6755 42.6263 29.563 42.6244 29.4487V29.4655C42.6188 27.6262 42.4519 25.828 42.135 24.0824L42.1632 24.268L42.1669 24.2718Z" fill="white"/>
</svg>
